<svg xmlns="http://www.w3.org/2000/svg" x="0px" y="0px"
width="50" height="50"
viewBox="0 0 171 171"
style=" fill:#000000;"><g fill="none" fill-rule="nonzero" stroke="none" stroke-width="1" stroke-linecap="butt" stroke-linejoin="miter" stroke-miterlimit="10" stroke-dasharray="" stroke-dashoffset="0" font-family="none" font-weight="none" font-size="none" text-anchor="none" style="mix-blend-mode: normal"><path d="M0,171.99654v-171.99654h171.99654v171.99654z" fill="none"></path><g fill="#6b46c1"><path d="M153.9,6.84c-3.7807,0 -6.84,3.0593 -6.84,6.84c0,1.00195 0.25383,1.92375 0.64125,2.77875l-27.36,38.26125c-0.21375,-0.01336 -0.4275,0 -0.64125,0c-1.36265,0 -2.67187,0.37406 -3.74063,1.06875l-23.61937,-11.75625c-0.22711,-3.58031 -3.20625,-6.4125 -6.84,-6.4125c-3.7807,0 -6.84,3.0593 -6.84,6.84c0,0.3607 0.05344,0.72141 0.10688,1.06875l-25.00875,19.87875c-0.76148,-0.2939 -1.58977,-0.4275 -2.45813,-0.4275c-3.42,0 -6.22547,2.4982 -6.73313,5.77125l-23.29875,9.405c-1.16227,-0.90844 -2.59172,-1.49625 -4.16812,-1.49625c-3.7807,0 -6.84,3.0593 -6.84,6.84c0,3.7807 3.0593,6.84 6.84,6.84c3.44672,0 6.26555,-2.55164 6.73312,-5.87813l23.29875,-9.29812c1.16227,0.90844 2.59172,1.49625 4.16812,1.49625c3.7807,0 6.84,-3.0593 6.84,-6.84c0,-0.3607 -0.05344,-0.7214 -0.10688,-1.06875l25.00875,-19.87875c0.76148,0.29391 1.58977,0.4275 2.45812,0.4275c1.36266,0 2.67188,-0.37406 3.74062,-1.06875l23.61938,11.75625c0.22711,3.58031 3.20625,6.4125 6.84,6.4125c3.7807,0 6.84,-3.0593 6.84,-6.84c0,-1.00195 -0.25383,-1.92375 -0.64125,-2.77875l27.36,-38.26125c0.21375,0.01336 0.4275,0 0.64125,0c3.7807,0 6.84,-3.0593 6.84,-6.84c0,-3.7807 -3.0593,-6.84 -6.84,-6.84zM140.22,51.3v119.7h27.36v-119.7zM147.06,58.14h13.68v106.02h-13.68zM71.82,82.08v88.92h27.36v-88.92zM78.66,88.92h13.68v75.24h-13.68zM106.02,99.18v71.82h27.36v-71.82zM112.86,106.02h13.68v58.14h-13.68zM37.62,109.44v61.56h27.36v-61.56zM44.46,116.28h13.68v47.88h-13.68zM3.42,123.12v47.88h27.36v-47.88zM10.26,129.96h13.68v34.2h-13.68z"></path></g></g></svg>