<svg xmlns="http://www.w3.org/2000/svg" x="0px" y="0px"
width="64" height="64"
viewBox="0 0 171 171"
style=" fill:#000000;"><g fill="none" fill-rule="nonzero" stroke="none" stroke-width="1" stroke-linecap="butt" stroke-linejoin="miter" stroke-miterlimit="10" stroke-dasharray="" stroke-dashoffset="0" font-family="none" font-weight="none" font-size="none" text-anchor="none" style="mix-blend-mode: normal"><path d="M0,171.99654v-171.99654h171.99654v171.99654z" fill="none"></path><g><path d="M56.10938,112.21875h58.78125c5.90217,0 10.6875,4.78533 10.6875,10.6875v8.01563h-80.15625v-8.01562c0,-5.90217 4.78533,-10.6875 10.6875,-10.6875z" fill="#ffffff"></path><path d="M85.5,112.21875h29.39063c5.90217,0 10.6875,4.78533 10.6875,10.6875v8.01563h-40.07812z" fill="#6b46c1"></path><path d="M125.57813,133.59375h-80.15625c-1.47755,0 -2.67187,-1.19433 -2.67187,-2.67187v-8.01562c0,-7.36636 5.99302,-13.35937 13.35938,-13.35937h58.78125c7.36636,0 13.35938,5.99302 13.35938,13.35938v8.01563c0,1.47755 -1.19433,2.67188 -2.67187,2.67188zM48.09375,128.25h74.8125v-5.34375c0,-4.41928 -3.59634,-8.01562 -8.01562,-8.01562h-58.78125c-4.41928,0 -8.01562,3.59634 -8.01562,8.01563z" fill="#6b46c1"></path><path d="M61.45045,98.85938c0,-20.96086 26.72142,-27.38672 26.72142,-38.74219c0,-1.00195 -0.44353,-1.23173 -1.00195,-1.33594c-0.66797,2.67188 -2.67187,5.34375 -7.68164,5.34375c-3.33984,0 -6.01172,-2.67187 -6.01172,-2.67187c-5.69377,2.17491 -9.35156,5.34375 -9.35156,5.34375l-10.6875,-7.71103c3.15816,-9.79777 18.94627,-22.86323 18.94627,-22.86323l3.15816,-6.53273c3.31312,-1.71267 7.09917,-2.5837 9.95808,-2.97113v-13.35937c0,0 11.2005,3.05663 14.88769,14.94647c9.40233,3.24633 22.51856,10.95202 22.51856,33.14728c0,19.5982 -13.35937,24.34078 -13.35937,37.40625z" fill="#ffffff"></path><path d="M122.90625,61.45313c0,19.58484 -13.35937,24.34078 -13.35937,37.40625h-23.94c-0.08016,-0.45422 -0.10688,-0.88172 -0.10688,-1.33594c0,-10.58062 12.02344,-16.69922 16.245,-22.01625c3.66047,-4.64906 5.13,-7.98891 5.13,-14.05406c0,-11.56922 -4.67578,-15.57703 -11.72953,-17.98172c-6.49266,-2.24438 -9.48516,-8.25609 -9.64547,-14.74875c-0.02672,-0.32062 -0.02672,-1.04203 0,-2.00391c-0.02672,-4.30172 0,-13.35937 0,-13.35937c0,0 11.19516,3.04594 14.88234,14.93578c9.405,3.25969 22.52391,10.95469 22.52391,33.15797z" fill="#6b46c1"></path><path d="M109.54688,101.53125h-48.09642c-1.47755,0 -2.67187,-1.19433 -2.67187,-2.67187c0,-13.34067 9.62944,-21.21202 17.36452,-27.54169c1.99589,-1.63252 3.88491,-3.17686 5.43459,-4.66777c-0.6653,0.09619 -1.36266,0.14695 -2.08941,0.14695c-2.75737,0 -5.06588,-1.2638 -6.47128,-2.26842c-4.33912,1.90238 -7.1152,4.26431 -7.14727,4.28836c-0.9405,0.80958 -2.30583,0.87103 -3.30778,0.14428l-10.6875,-7.71103c-0.9405,-0.67598 -1.33594,-1.881 -0.98058,-2.98448c3.08334,-9.56531 16.61906,-21.41508 19.33102,-23.72091l2.90967,-6.01973c0.25116,-0.51834 0.6653,-0.94584 1.17563,-1.21036c2.95242,-1.52564 6.12127,-2.38598 8.51794,-2.85891v-11.0963c0,-0.83363 0.39009,-1.61648 1.05005,-2.12414c0.6653,-0.50231 1.53366,-0.66797 2.32453,-0.45422c0.49964,0.13627 11.86312,3.36656 16.30378,15.44611c15.31252,5.75255 23.07164,17.5943 23.07164,35.226c0,11.57456 -4.30973,18.27028 -8.11448,24.17513c-2.81348,4.37119 -5.24489,8.14655 -5.24489,13.23112c0,1.47755 -1.19433,2.67188 -2.67187,2.67188zM64.29333,96.1875h42.74466c0.6653,-5.27428 3.23297,-9.26339 5.93156,-13.45289c3.5723,-5.54414 7.26483,-11.27798 7.26483,-21.28148c0,-15.79345 -6.77587,-25.81031 -20.71772,-30.62236c-0.80423,-0.27787 -1.42678,-0.9218 -1.68061,-1.73405c-2.00925,-6.47663 -6.50869,-9.97411 -9.66417,-11.70014v9.32217c0,1.33861 -0.98859,2.46881 -2.31384,2.64783c-1.80886,0.24314 -5.17542,0.86034 -8.3122,2.31652l-2.7547,5.70445c-0.16833,0.34467 -0.40613,0.64927 -0.7027,0.89508c-3.90094,3.2303 -13.98727,12.59789 -17.39925,19.8547l7.39308,5.33306c1.72336,-1.22372 4.66777,-3.06998 8.44312,-4.5128c0.98325,-0.37406 2.09475,-0.13894 2.8402,0.60919c0.52903,0.513 2.32988,1.88634 4.1227,1.88634c3.81811,0 4.73189,-1.89436 5.08992,-3.31847c0.33933,-1.37334 1.69397,-2.21766 3.08067,-1.97986c1.99589,0.37139 3.18488,1.85428 3.18488,3.96239c0,6.08119 -5.49872,10.57795 -11.31539,15.33656c-6.60755,5.4052 -14.01933,11.46502 -15.23503,20.73375z" fill="#6b46c1"></path><path d="M37.40625,130.92188h96.1875c2.95242,0 5.34375,2.39133 5.34375,5.34375v21.375h-106.875v-21.375c0,-2.95242 2.39133,-5.34375 5.34375,-5.34375z" fill="#ffffff"></path><path d="M138.9375,157.64063h-106.875v-5.34375c0,-4.4273 3.58833,-8.01562 8.01563,-8.01562h90.84375c4.4273,0 8.01563,3.58833 8.01563,8.01563z" fill="#ffffff"></path><path d="M32.0625,157.64063h-21.375v-26.71875h16.03125c2.95242,0 5.34375,2.39133 5.34375,5.34375z" fill="#ffffff"></path><path d="M32.0625,157.64063h-21.375v-13.35937h13.35938c4.4273,0 8.01563,3.58833 8.01563,8.01563z" fill="#ffffff"></path><path d="M138.9375,157.64063h21.375v-26.71875h-16.03125c-2.95242,0 -5.34375,2.39133 -5.34375,5.34375z" fill="#ffffff"></path><path d="M138.9375,157.64063h21.375v-13.35937h-13.35937c-4.4273,0 -8.01562,3.58833 -8.01562,8.01563z" fill="#ffffff"></path><path d="M98.85938,149.625c1.47487,0 2.67188,-1.19433 2.67188,-2.67187v-5.34375c0,-1.47755 -1.197,-2.67187 -2.67187,-2.67187c-1.47487,0 -2.67187,1.19433 -2.67187,2.67188v5.34375c0,1.47755 1.197,2.67188 2.67188,2.67188zM85.5,149.625c1.47487,0 2.67188,-1.19433 2.67188,-2.67187v-5.34375c0,-1.47755 -1.197,-2.67187 -2.67187,-2.67187c-1.47487,0 -2.67187,1.19433 -2.67187,2.67188v5.34375c0,1.47755 1.197,2.67188 2.67188,2.67188zM72.14063,149.625c1.47487,0 2.67188,-1.19433 2.67188,-2.67187v-5.34375c0,-1.47755 -1.197,-2.67187 -2.67187,-2.67187c-1.47487,0 -2.67187,1.19433 -2.67187,2.67188v5.34375c0,1.47755 1.197,2.67188 2.67188,2.67188zM58.78125,149.625c1.47487,0 2.67188,-1.19433 2.67188,-2.67187v-5.34375c0,-1.47755 -1.197,-2.67187 -2.67187,-2.67187c-1.47487,0 -2.67187,1.19433 -2.67187,2.67188v5.34375c0,1.47755 1.197,2.67188 2.67188,2.67188zM45.42188,149.625c1.47487,0 2.67188,-1.19433 2.67188,-2.67187v-5.34375c0,-1.47755 -1.197,-2.67187 -2.67187,-2.67187c-1.47487,0 -2.67187,1.19433 -2.67187,2.67188v5.34375c0,1.47755 1.197,2.67188 2.67188,2.67188zM18.70313,149.625c1.47487,0 2.67188,-1.19433 2.67188,-2.67187v-5.34375c0,-1.47755 -1.197,-2.67187 -2.67187,-2.67187c-1.47487,0 -2.67187,1.19433 -2.67187,2.67188v5.34375c0,1.47755 1.197,2.67188 2.67188,2.67188zM152.29688,149.625c1.47487,0 2.67188,-1.19433 2.67188,-2.67187v-5.34375c0,-1.47755 -1.197,-2.67187 -2.67187,-2.67187c-1.47487,0 -2.67187,1.19433 -2.67187,2.67188v5.34375c0,1.47755 1.197,2.67188 2.67188,2.67188zM112.21875,149.625c1.47487,0 2.67188,-1.19433 2.67188,-2.67187v-5.34375c0,-1.47755 -1.197,-2.67187 -2.67187,-2.67187c-1.47487,0 -2.67187,1.19433 -2.67187,2.67188v5.34375c0,1.47755 1.197,2.67188 2.67188,2.67188zM125.57813,149.625c1.47487,0 2.67188,-1.19433 2.67188,-2.67187v-5.34375c0,-1.47755 -1.197,-2.67187 -2.67187,-2.67187c-1.47487,0 -2.67187,1.19433 -2.67187,2.67188v5.34375c0,1.47755 1.197,2.67188 2.67188,2.67188zM160.3125,160.3125h-149.625c-1.47488,0 -2.67187,-1.197 -2.67187,-2.67187v0c0,-1.47487 1.197,-2.67187 2.67188,-2.67187h149.625c1.47487,0 2.67188,1.197 2.67188,2.67188v0c0,1.47487 -1.197,2.67188 -2.67187,2.67188z" fill="#6b46c1"></path><path d="M141.60938,160.3125h-112.21875v-24.04687c0,-4.41928 3.59634,-8.01562 8.01563,-8.01562h96.1875c4.41928,0 8.01563,3.59634 8.01563,8.01563zM34.73438,154.96875h101.53125v-18.70312c0,-1.47487 -1.197,-2.67187 -2.67187,-2.67187h-96.1875c-1.47487,0 -2.67187,1.197 -2.67187,2.67188z" fill="#6b46c1"></path><path d="M34.73438,160.3125h-24.04687c-1.47755,0 -2.67187,-1.19433 -2.67187,-2.67187c0,-1.47755 1.19433,-2.67187 2.67188,-2.67187h18.70313v-18.70312c0,-1.47487 -1.197,-2.67187 -2.67187,-2.67187h-16.03125c-1.47755,0 -2.67187,-1.19433 -2.67187,-2.67187c0,-1.47755 1.19433,-2.67187 2.67188,-2.67187h16.03125c4.41928,0 8.01563,3.59634 8.01563,8.01563zM160.3125,160.3125h-24.04687v-24.04687c0,-4.41928 3.59634,-8.01562 8.01563,-8.01562h16.03125c1.47755,0 2.67188,1.19433 2.67188,2.67188c0,1.47755 -1.19433,2.67188 -2.67187,2.67188h-16.03125c-1.47487,0 -2.67187,1.197 -2.67187,2.67188v18.70313h18.70313c1.47755,0 2.67188,1.19433 2.67188,2.67188c0,1.47755 -1.19433,2.67188 -2.67187,2.67188z" fill="#6b46c1"></path><path d="M110.88281,98.85938c-3.15548,0 -47.61281,0 -50.76562,0c-3.68986,0 -6.67969,2.98983 -6.67969,6.67969c0,3.68986 2.98983,6.67969 6.67969,6.67969c3.15281,0 47.61014,0 50.76563,0c3.68986,0 6.67969,-2.98983 6.67969,-6.67969c0,-3.68986 -2.98983,-6.67969 -6.67969,-6.67969z" fill="#ffffff"></path><path d="M110.88281,98.85938c-1.57908,0 -13.47961,0 -25.38281,0v13.35938c11.9032,0 23.80373,0 25.38281,0c3.68986,0 6.67969,-2.98983 6.67969,-6.67969c0,-3.68986 -2.98983,-6.67969 -6.67969,-6.67969z" fill="#ffffff"></path><path d="M110.88281,114.89063h-50.76562c-5.15672,0 -9.35156,-4.19484 -9.35156,-9.35156c0,-5.15672 4.19484,-9.35156 9.35156,-9.35156h50.76563c5.15672,0 9.35156,4.19484 9.35156,9.35156c0,5.15672 -4.19484,9.35156 -9.35156,9.35156zM60.11719,101.53125c-2.20964,0 -4.00781,1.79817 -4.00781,4.00781c0,2.20964 1.79817,4.00781 4.00781,4.00781h50.76563c2.20964,0 4.00781,-1.79817 4.00781,-4.00781c0,-2.20964 -1.79817,-4.00781 -4.00781,-4.00781z" fill="#6b46c1"></path></g></g></svg>