<svg xmlns="http://www.w3.org/2000/svg" x="0px" y="0px"
width="50" height="50"
viewBox="0 0 171 171"
style=" fill:#000000;"><g fill="none" fill-rule="nonzero" stroke="none" stroke-width="1" stroke-linecap="butt" stroke-linejoin="miter" stroke-miterlimit="10" stroke-dasharray="" stroke-dashoffset="0" font-family="none" font-weight="none" font-size="none" text-anchor="none" style="mix-blend-mode: normal"><path d="M0,171.99654v-171.99654h171.99654v171.99654z" fill="none"></path><g fill="#6b46c1"><path d="M27.36,27.36c-7.51488,0 -13.68,6.16512 -13.68,13.68v75.24c0,2.49895 0.73067,4.81663 1.91707,6.84h-8.75707c-1.88784,0 -3.42,1.53216 -3.42,3.42c0,9.42894 7.67106,17.1 17.1,17.1h129.96c9.42894,0 17.1,-7.67106 17.1,-17.1c0,-1.88784 -1.53216,-3.42 -3.42,-3.42h-8.75707c1.18639,-2.02337 1.91707,-4.34105 1.91707,-6.84v-75.24c0,-7.51488 -6.16512,-13.68 -13.68,-13.68zM27.36,34.2h116.28c3.819,0 6.84,3.021 6.84,6.84v75.24c0,3.819 -3.021,6.84 -6.84,6.84h-116.28c-3.819,0 -6.84,-3.021 -6.84,-6.84v-75.24c0,-3.819 3.021,-6.84 6.84,-6.84zM75.24,44.46v68.4h20.52v-68.4zM102.6,58.14v54.72h20.52v-54.72zM47.88,75.24v37.62h20.52v-37.62z"></path></g></g></svg>