<svg xmlns="http://www.w3.org/2000/svg" x="0px" y="0px"
width="100" height="100"
viewBox="0 0 171 171"
style=" fill:#000000;"><g fill="none" fill-rule="nonzero" stroke="none" stroke-width="1" stroke-linecap="butt" stroke-linejoin="miter" stroke-miterlimit="10" stroke-dasharray="" stroke-dashoffset="0" font-family="none" font-weight="none" font-size="none" text-anchor="none" style="mix-blend-mode: normal"><path d="M0,171.99654v-171.99654h171.99654v171.99654z" fill="none"></path><g><path d="M145.28331,34.13331l7.08282,-0.10773c0.40527,-14.45463 -17.01108,-13.57227 -17.01108,-13.57227l-85.78215,-0.01026c-6.58008,0 -12.01959,7.182 -12.01959,13.06098v74.15928l-17.05554,-0.04959c-0.01368,0.6156 0.00684,35.48079 0.06156,36.03483c1.11492,11.46726 16.06716,10.18476 16.06716,10.18476l99.82296,0.07011c5.38137,0.50103 8.83557,-5.92002 8.83557,-9.48537c0,-3.56535 -0.00171,-110.28474 -0.00171,-110.28474" fill="#ffffff"></path><path d="M39.26331,107.66331l-17.94816,-0.04788c-0.01539,0.6156 0.00855,35.47908 0.06669,36.03483c1.20897,11.46726 17.41464,10.18305 17.41464,10.18305h0.46683z" fill="#6b46c1"></path><path d="M36.11007,148.75632c-0.94392,0 -1.71,-0.76608 -1.71,-1.71c0,-0.94392 0.76608,-1.71 1.71,-1.71c0.4275,0 0.60534,-0.12825 0.72162,-0.25479c0.57627,-0.62073 1.2825,-2.23326 1.0944,-4.76919l-0.05301,-106.82199c0,-6.68781 5.86017,-14.46318 13.46625,-14.46318l85.72401,-0.28557c0.16758,0.17784 9.42723,-0.41553 14.85819,4.89573c2.68299,2.62314 3.9843,6.13377 3.86289,10.43442c-0.02565,0.92511 -0.78147,1.66041 -1.70658,1.66212l-65.22453,0.10773h-0.00171c-0.94392,0 -1.70829,-0.76437 -1.71,-1.70829c-0.00171,-0.94392 0.76266,-1.71 1.70829,-1.71171l63.52308,0.24966c-0.2223,-2.54106 -1.20555,-4.98465 -2.83176,-6.57837c-4.34853,-4.26474 -12.31713,-3.93984 -12.39237,-3.93129l-85.86594,-0.00855c-5.55237,0 -10.30959,6.2415 -10.30959,11.35098l-0.13851,106.69545c0.18981,2.4966 0.16416,5.4207 -1.49625,7.20765c-0.81909,0.88236 -1.93572,1.34919 -3.22848,1.34919z" fill="#6b46c1"></path><path d="M138.76308,155.57067c-0.24795,0 -0.49932,-0.01197 -0.74898,-0.03591l-99.51345,-0.06156c-5.6088,0.48735 -16.73406,-1.32354 -17.74296,-11.70153c-0.06669,-0.67716 -0.07524,-35.86212 -0.0684,-36.14769c0.02052,-0.92853 0.78147,-1.67067 1.71,-1.67067c0.00171,0 0.00342,0 0.00513,0l16.86573,0.04617c0.94392,0.00171 1.70829,0.77121 1.70487,1.71513c-0.00171,0.94221 -0.76779,1.70487 -1.71,1.70487c-0.00171,0 -0.00342,0 -0.00513,0l-15.63453,-0.1539c0,6.91524 -0.12654,32.61825 -0.07866,33.80841c0.93366,9.58113 14.42898,9.34686 14.96934,9.29727l99.65709,-0.24966c1.54584,0.1368 2.86767,-0.35739 4.08006,-1.46205c1.89639,-1.72881 3.03012,-4.55544 3.03012,-6.28938v-110.23686c0,-0.94392 0.76608,-1.71 1.71,-1.71c0.94392,0 1.71,0.76608 1.71,1.71v110.23857c0,2.50344 -1.42443,6.33555 -4.14675,8.81676c-1.72026,1.56636 -3.70899,2.38203 -5.79348,2.38203zM80.30331,35.84331h-8.55c-0.94392,0 -1.71,-0.76608 -1.71,-1.71c0,-0.94392 0.76608,-1.71 1.71,-1.71h8.55c0.94392,0 1.71,0.76608 1.71,1.71c0,0.94392 -0.76608,1.71 -1.71,1.71zM79.44831,59.78331h-30.78c-0.47196,0 -0.855,-0.38304 -0.855,-0.855c0,-0.47196 0.38304,-0.855 0.855,-0.855h30.78c0.47196,0 0.855,0.38304 0.855,0.855c0,0.47196 -0.38304,0.855 -0.855,0.855z" fill="#6b46c1"></path><path d="M141.00831,59.78331h-56.43c-0.47196,0 -0.855,-0.38304 -0.855,-0.855c0,-0.47196 0.38304,-0.855 0.855,-0.855h56.43c0.47196,0 0.855,0.38304 0.855,0.855c0,0.47196 -0.38304,0.855 -0.855,0.855zM141.00831,76.88331h-53.01c-0.47196,0 -0.855,-0.38304 -0.855,-0.855c0,-0.47196 0.38304,-0.855 0.855,-0.855h53.01c0.47196,0 0.855,0.38304 0.855,0.855c0,0.47196 -0.38304,0.855 -0.855,0.855zM141.00831,88.85331h-53.01c-0.47196,0 -0.855,-0.38304 -0.855,-0.855c0,-0.47196 0.38304,-0.855 0.855,-0.855h53.01c0.47196,0 0.855,0.38304 0.855,0.855c0,0.47196 -0.38304,0.855 -0.855,0.855z" fill="#6b46c1"></path><path d="M77.73831,77.73831v22.23h-29.07v-27.36h23.94" fill="#6b46c1"></path><path d="M77.73831,100.82331h-29.07c-0.47196,0 -0.855,-0.38304 -0.855,-0.855v-27.36c0,-0.47196 0.38304,-0.855 0.855,-0.855h23.94c0.47196,0 0.855,0.38304 0.855,0.855c0,0.47196 -0.38304,0.855 -0.855,0.855h-23.085v25.65h27.36v-21.375c0,-0.47196 0.38304,-0.855 0.855,-0.855c0.47196,0 0.855,0.38304 0.855,0.855v22.23c0,0.47196 -0.38304,0.855 -0.855,0.855zM141.00831,100.82331h-53.01c-0.47196,0 -0.855,-0.38304 -0.855,-0.855c0,-0.47196 0.38304,-0.855 0.855,-0.855h53.01c0.47196,0 0.855,0.38304 0.855,0.855c0,0.47196 -0.38304,0.855 -0.855,0.855zM117.06831,49.52331h-23.94c-0.47196,0 -0.855,-0.38304 -0.855,-0.855c0,-0.47196 0.38304,-0.855 0.855,-0.855h23.94c0.47196,0 0.855,0.38304 0.855,0.855c0,0.47196 -0.38304,0.855 -0.855,0.855zM141.00831,49.52331h-18.81c-0.47196,0 -0.855,-0.38304 -0.855,-0.855c0,-0.47196 0.38304,-0.855 0.855,-0.855h18.81c0.47196,0 0.855,0.38304 0.855,0.855c0,0.47196 -0.38304,0.855 -0.855,0.855zM87.99831,49.52331h-39.33c-0.47196,0 -0.855,-0.38304 -0.855,-0.855c0,-0.47196 0.38304,-0.855 0.855,-0.855h39.33c0.47196,0 0.855,0.38304 0.855,0.855c0,0.47196 -0.38304,0.855 -0.855,0.855zM101.67831,138.44331h-53.01c-0.47196,0 -0.855,-0.38304 -0.855,-0.855c0,-0.47196 0.38304,-0.855 0.855,-0.855h53.01c0.47196,0 0.855,0.38304 0.855,0.855c0,0.47196 -0.38304,0.855 -0.855,0.855zM101.67831,126.47331h-53.01c-0.47196,0 -0.855,-0.38304 -0.855,-0.855c0,-0.47196 0.38304,-0.855 0.855,-0.855h53.01c0.47196,0 0.855,0.38304 0.855,0.855c0,0.47196 -0.38304,0.855 -0.855,0.855z" fill="#6b46c1"></path><path d="M110.22831,137.58831v-23.94h29.07v27.36h-22.23" fill="#6b46c1"></path><path d="M139.29831,141.86331h-22.23c-0.47196,0 -0.855,-0.38304 -0.855,-0.855c0,-0.47196 0.38304,-0.855 0.855,-0.855h21.375v-25.65h-27.36v23.085c0,0.47196 -0.38304,0.855 -0.855,0.855c-0.47196,0 -0.855,-0.38304 -0.855,-0.855v-23.94c0,-0.47196 0.38304,-0.855 0.855,-0.855h29.07c0.47196,0 0.855,0.38304 0.855,0.855v27.36c0,0.47196 -0.38304,0.855 -0.855,0.855zM101.67831,114.50331h-53.01c-0.47196,0 -0.855,-0.38304 -0.855,-0.855c0,-0.47196 0.38304,-0.855 0.855,-0.855h53.01c0.47196,0 0.855,0.38304 0.855,0.855c0,0.47196 -0.38304,0.855 -0.855,0.855z" fill="#6b46c1"></path></g></g></svg>