<svg xmlns="http://www.w3.org/2000/svg" x="0px" y="0px"
width="64" height="64"
viewBox="0 0 171 171"
style=" fill:#000000;"><g fill="none" fill-rule="nonzero" stroke="none" stroke-width="1" stroke-linecap="butt" stroke-linejoin="miter" stroke-miterlimit="10" stroke-dasharray="" stroke-dashoffset="0" font-family="none" font-weight="none" font-size="none" text-anchor="none" style="mix-blend-mode: normal"><path d="M0,171.99654v-171.99654h171.99654v171.99654z" fill="none"></path><g><path d="M12.02344,12.02344h146.95313v13.35938h-146.95312zM25.38281,25.38281h120.23438v106.875h-120.23437z" fill="#ffffff"></path><path d="M136.66641,109.68047h-18.43594l-21.77578,-64.125c-0.53438,-1.60313 -2.1375,-2.67187 -3.74062,-2.67187c0,0 0,0 -0.13359,0c-1.73672,0 -3.20625,1.20234 -3.74062,2.80547l-4.14141,13.76016c-0.26719,0.26719 -0.40078,0.66797 -0.53437,1.06875l-5.21016,17.36719h-10.42031c-1.73672,0 -3.20625,1.06875 -3.74062,2.67188l-5.61094,15.89766l-5.61094,-15.89766c-0.53438,-1.60313 -2.1375,-2.67187 -3.74063,-2.67187h-9.35156c-2.27109,0 -4.00781,1.73672 -4.00781,4.00781c0,2.27109 1.73672,4.00781 4.00781,4.00781h6.54609l8.41641,24.04688c0.53437,1.60313 2.1375,2.67188 3.74062,2.67188c1.73672,0 3.20625,-1.06875 3.74062,-2.67187l8.41641,-24.04687h10.55391c1.73672,0 3.33984,-1.20234 3.87422,-2.80547l4.94297,-16.29844c0.26719,-0.26719 0.40078,-0.66797 0.53437,-1.06875l1.73672,-5.74453l18.70313,54.90703c0.53437,1.60313 2.1375,2.67188 3.74062,2.67188h21.375c2.27109,0 4.00781,-1.73672 4.00781,-4.00781c0,-2.27109 -1.87031,-3.87422 -4.14141,-3.87422z" fill="#6b46c1"></path><path d="M145.61719,132.25781v0c-7.88203,-47.55937 -46.08984,-84.29766 -94.05,-90.17578l-26.18437,-3.33984v-13.35937h120.23438z" fill="#6b46c1"></path><path d="M25.38281,25.38281h120.23438v13.35938h-120.23437z" fill="#ffffff"></path><path d="M158.97656,29.39063h-146.95312c-2.27109,0 -4.00781,-1.73672 -4.00781,-4.00781v-13.35937c0,-2.27109 1.73672,-4.00781 4.00781,-4.00781h146.95313c2.27109,0 4.00781,1.73672 4.00781,4.00781v13.35938c0,2.27109 -1.73672,4.00781 -4.00781,4.00781zM16.03125,21.375h138.9375v-5.34375h-138.9375z" fill="#6b46c1"></path><path d="M145.61719,136.26563h-120.23437c-2.27109,0 -4.00781,-1.73672 -4.00781,-4.00781v-106.875c0,-2.27109 1.73672,-4.00781 4.00781,-4.00781h120.23438c2.27109,0 4.00781,1.73672 4.00781,4.00781v106.875c0,2.27109 -1.73672,4.00781 -4.00781,4.00781zM29.39063,128.25h112.21875v-98.85937h-112.21875z" fill="#6b46c1"></path><path d="M85.5,149.625c-2.27109,0 -4.00781,-1.73672 -4.00781,-4.00781v-13.35937c0,-2.27109 1.73672,-4.00781 4.00781,-4.00781c2.27109,0 4.00781,1.73672 4.00781,4.00781v13.35938c0,2.27109 -1.73672,4.00781 -4.00781,4.00781zM85.5,162.98438c-1.06875,0 -2.1375,-0.40078 -2.80547,-1.20234c-0.80156,-0.80156 -1.20234,-1.73672 -1.20234,-2.80547c0,-1.06875 0.40078,-2.1375 1.20234,-2.80547c1.46953,-1.46953 4.14141,-1.46953 5.61094,0c0.80156,0.80156 1.20234,1.73672 1.20234,2.80547c0,1.06875 -0.40078,2.1375 -1.20234,2.80547c-0.66797,0.80156 -1.73672,1.20234 -2.80547,1.20234z" fill="#6b46c1"></path></g></g></svg>