<svg xmlns="http://www.w3.org/2000/svg" x="0px" y="0px"
width="64" height="64"
viewBox="0 0 171 171"
style=" fill:#000000;"><g fill="none" fill-rule="nonzero" stroke="none" stroke-width="1" stroke-linecap="butt" stroke-linejoin="miter" stroke-miterlimit="10" stroke-dasharray="" stroke-dashoffset="0" font-family="none" font-weight="none" font-size="none" text-anchor="none" style="mix-blend-mode: normal"><path d="M0,171.99654v-171.99654h171.99654v171.99654z" fill="none"></path><g><path d="M40.74609,53.73141l32.51672,5.37047l27.38672,2.35125l24.26062,-2.35125l34.94813,-6.89344l-3.09938,-11.00812l-18.22219,2.35125l-20.76047,2.32453l-6.01172,-0.24047v-4.43531l5.58422,-6.92016l0.4275,-21.13453l-8.63016,-7.80187l-12.50437,-2.67187l-12.02344,4.67578l-4.67578,8.46984l-1.33594,11.56922l3.33984,10.47375l2.67188,4.88953l0.66797,2.45813l-11.91656,0.56109l-15.71062,-4.00781l-13.78687,-0.34734l-3.68719,6.67969z" fill="#6b46c1"></path><path d="M156.38484,114.30281c-8.43712,8.08822 -21.80624,7.90006 -30.01239,-0.4224c-8.20615,-8.32246 -8.20615,-21.6929 0,-30.01536c8.20615,-8.32246 21.57527,-8.51062 30.01239,-0.4224c1.36221,1.31685 3.18191,2.05431 5.07656,2.05734v0c0.74726,0.0024 1.46138,-0.30825 1.96908,-0.85657c0.5077,-0.54832 0.76258,-1.28419 0.70279,-2.02906c-0.50514,-7.37156 -1.39699,-14.7115 -2.67187,-21.98953l-2.67187,-15.28312c-0.24832,-1.45384 -1.08647,-2.74041 -2.31599,-3.55503c-1.22952,-0.81462 -2.74105,-1.08485 -4.17666,-0.74669l-15.28312,2.67188c-7.27803,1.27489 -14.61797,2.16674 -21.98953,2.67188c-0.74487,0.05979 -1.48074,-0.19509 -2.02906,-0.70279c-0.54832,-0.5077 -0.85896,-1.22182 -0.85657,-1.96908v0c0.00887,-1.90654 0.7558,-3.73555 2.08406,-5.10328c8.08822,-8.43712 7.90006,-21.80624 -0.4224,-30.01239c-8.32246,-8.20615 -21.6929,-8.20615 -30.01536,0c-8.32246,8.20615 -8.51062,21.57527 -0.4224,30.01239c1.31685,1.36221 2.05431,3.18191 2.05734,5.07656v0c0.0024,0.74726 -0.30825,1.46138 -0.85657,1.96908c-0.54832,0.5077 -1.28419,0.76258 -2.02906,0.70279c-7.37156,-0.50514 -14.7115,-1.39699 -21.98953,-2.67187l-12.95859,-2.35125c-1.72955,-0.31946 -3.50555,0.2326 -4.74921,1.47626c-1.24366,1.24366 -1.79572,3.01966 -1.47626,4.74921l2.35125,12.95859c1.27489,7.27803 2.16674,14.61797 2.67188,21.98953c0.05979,0.74487 -0.19509,1.48074 -0.70279,2.02906c-0.5077,0.54832 -1.22182,0.85896 -1.96908,0.85657v0c-1.90654,-0.00887 -3.73555,-0.7558 -5.10328,-2.08406c-8.43712,-8.08822 -21.80624,-7.90006 -30.01239,0.4224c-8.20615,8.32246 -8.20615,21.6929 0,30.01536c8.20615,8.32246 21.57527,8.51062 30.01239,0.4224c1.36221,-1.31685 3.18191,-2.05431 5.07656,-2.05734v0c0.74726,-0.0024 1.46138,0.30825 1.96908,0.85657c0.5077,0.54832 0.76258,1.28419 0.70279,2.02906c-0.50514,7.37156 -1.39699,14.7115 -2.67187,21.98953l-2.67187,14.24109c-0.2884,1.57484 0.14451,3.19602 1.17961,4.41744c1.0351,1.22142 2.56332,1.91437 4.16414,1.88818h106.82156c2.61311,0.04262 4.87367,-1.81104 5.34375,-4.38187l2.93906,-16.03125c1.27489,-7.27803 2.16674,-14.61797 2.67188,-21.98953c0.05979,-0.74487 -0.19509,-1.48074 -0.70279,-2.02906c-0.5077,-0.54832 -1.22182,-0.85896 -1.96908,-0.85657v0c-1.89357,0.00857 -3.71128,0.74522 -5.07656,2.05734z" fill="#ffffff"></path><path d="M157.64063,157.64063h-114.30281c-0.81174,0.01644 -1.58692,-0.33711 -2.10669,-0.96083c-0.51977,-0.62372 -0.72774,-1.44995 -0.56519,-2.24542l0.74812,-3.71391c0.75472,-3.76299 4.07089,-6.46298 7.90875,-6.43922h101.21063c2.40155,0.00113 4.67607,1.079 6.19767,2.93701c1.5216,1.85801 2.12995,4.30037 1.65764,6.65503z" fill="#6b46c1"></path><path d="M161.46141,109.54688c-2.59557,0.00603 -5.08695,1.02175 -6.94688,2.83219c-7.38386,7.07303 -19.07918,6.90541 -26.25731,-0.37633c-7.17812,-7.28174 -7.17812,-18.97826 0,-26.26c7.17812,-7.28174 18.87345,-7.44936 26.25731,-0.37633c1.87698,1.74791 4.35557,2.70489 6.92016,2.67188c1.4895,0.0042 2.91316,-0.61348 3.92767,-1.70408c1.01451,-1.0906 1.52779,-2.55514 1.41608,-4.04045c-0.54362,-7.47188 -1.48007,-14.90998 -2.80547,-22.28344l-2.67187,-15.28312c-0.37711,-2.09502 -1.57207,-3.954 -3.32136,-5.16698c-1.74929,-1.21298 -3.90923,-1.68032 -6.00348,-1.29896l-15.28312,2.67188c-7.1877,1.27904 -14.43893,2.17095 -21.72234,2.67188c0.01024,-1.20992 0.4891,-2.36876 1.33594,-3.23297c9.09231,-9.49406 8.87567,-24.52989 -0.48641,-33.75805c-9.36208,-9.22815 -24.39947,-9.22815 -33.76155,0c-9.36208,9.22815 -9.57873,24.26399 -0.48641,33.75805c0.90443,0.95233 1.36105,2.24445 1.25578,3.55359c-7.28242,-0.51126 -14.5331,-1.4031 -21.72234,-2.67187l-13.01203,-2.43141c-2.57033,-0.44738 -5.19759,0.38417 -7.04241,2.22899c-1.84483,1.84483 -2.67638,4.47208 -2.22899,7.04241l2.35125,12.95859c1.27904,7.1877 2.17095,14.43893 2.67188,21.72234c-1.20992,-0.01024 -2.36876,-0.4891 -3.23297,-1.33594c-9.49406,-9.09231 -24.52989,-8.87567 -33.75805,0.48641c-9.22815,9.36208 -9.22815,24.39947 0,33.76155c9.22815,9.36208 24.26399,9.57873 33.75805,0.48641c0.88284,-0.84516 2.06447,-1.30628 3.28641,-1.2825v0c-0.51126,7.28242 -1.4031,14.5331 -2.67187,21.72234l-2.67187,14.24109c-0.4326,2.36226 0.21677,4.79403 1.76942,6.62616c1.55265,1.83213 3.84498,2.87156 6.2462,2.83228h106.60781c3.91967,0.06393 7.31051,-2.71656 8.01563,-6.57281l2.93906,-16.03125c1.32535,-7.37346 2.2618,-14.81156 2.80547,-22.28344c0.11172,-1.48531 -0.40156,-2.94985 -1.41608,-4.04045c-1.01451,-1.0906 -2.43817,-1.70828 -3.92767,-1.70408zM158.78953,136.61297l-2.93906,16.03125c-0.23504,1.28542 -1.36532,2.21225 -2.67187,2.19094h-106.68797c-0.80041,0.01309 -1.56452,-0.33338 -2.08207,-0.94409c-0.51755,-0.61071 -0.73401,-1.4213 -0.58981,-2.20872l2.67188,-14.24109c1.32535,-7.37346 2.2618,-14.81156 2.80547,-22.28344c0.11003,-1.48332 -0.40314,-2.94537 -1.41609,-4.03453c-1.0493,-1.0574 -2.49234,-1.62881 -3.98109,-1.57641c-2.56459,-0.03302 -5.04318,0.92397 -6.92016,2.67188c-7.38386,7.07303 -19.07918,6.90541 -26.25731,-0.37633c-7.17812,-7.28174 -7.17812,-18.97826 0,-26.26c7.17812,-7.28174 18.87345,-7.44936 26.25731,-0.37633c1.83184,1.853 4.31499,2.91721 6.92016,2.96578c1.4895,0.0042 2.91316,-0.61348 3.92767,-1.70408c1.01451,-1.0906 1.52779,-2.55514 1.41608,-4.04045c-0.54362,-7.47188 -1.48007,-14.90998 -2.80547,-22.28344l-2.35125,-12.95859c-0.15834,-0.86755 0.1216,-1.75735 0.74813,-2.37797c0.62062,-0.62653 1.51042,-0.90647 2.37797,-0.74813l12.95859,2.35125c7.37346,1.32535 14.81156,2.2618 22.28344,2.80547c1.48531,0.11172 2.94985,-0.40156 4.04045,-1.41608c1.0906,-1.01451 1.70828,-2.43817 1.70408,-3.92767c0.03302,-2.56459 -0.92397,-5.04318 -2.67187,-6.92016c-7.07303,-7.38386 -6.90541,-19.07918 0.37633,-26.25731c7.28174,-7.17812 18.97826,-7.17812 26.26,0c7.28174,7.17812 7.44936,18.87345 0.37633,26.25731c-1.86922,1.83406 -2.94379,4.32859 -2.9925,6.94687c-0.0042,1.4895 0.61348,2.91316 1.70408,3.92767c1.0906,1.01451 2.55514,1.52779 4.04045,1.41608c7.47188,-0.54362 14.90998,-1.48007 22.28344,-2.80547l15.28312,-2.67187c0.69824,-0.12946 1.41929,0.02436 2.00391,0.4275c0.58606,0.3986 0.98974,1.01372 1.12219,1.71l2.67188,15.28312c1.28047,7.18749 2.17239,14.4388 2.67188,21.72234c-1.20673,-0.00029 -2.36607,-0.46977 -3.23297,-1.30922c-4.68872,-4.47763 -10.98682,-6.87228 -17.466,-6.64088c-6.47918,0.2314 -12.5904,3.06924 -16.94775,7.86994c-8.56442,9.63355 -8.00958,24.30668 1.25789,33.26595c9.26747,8.95927 23.95097,9.01771 33.28946,0.13249v0c0.86264,-0.84922 2.02249,-1.3285 3.23297,-1.33594v0c-0.5201,7.28289 -1.42086,14.53358 -2.69859,21.72234z" fill="#6b46c1"></path><path d="M56.10938,138.9375c-1.47564,0 -2.67187,1.19624 -2.67187,2.67188v5.34375c0,1.47564 1.19624,2.67188 2.67188,2.67188c1.47564,0 2.67188,-1.19624 2.67188,-2.67187v-5.34375c0,-1.47564 -1.19624,-2.67187 -2.67187,-2.67187zM69.46875,138.9375c-1.47564,0 -2.67187,1.19624 -2.67187,2.67188v5.34375c0,1.47564 1.19624,2.67188 2.67188,2.67188c1.47564,0 2.67188,-1.19624 2.67188,-2.67187v-5.34375c0,-1.47564 -1.19624,-2.67187 -2.67187,-2.67187zM82.82813,138.9375c-1.47564,0 -2.67187,1.19624 -2.67187,2.67188v5.34375c0,1.47564 1.19624,2.67188 2.67188,2.67188c1.47564,0 2.67188,-1.19624 2.67188,-2.67187v-5.34375c0,-1.47564 -1.19624,-2.67187 -2.67187,-2.67187zM96.1875,138.9375c-1.47564,0 -2.67187,1.19624 -2.67187,2.67188v5.34375c0,1.47564 1.19624,2.67188 2.67188,2.67188c1.47564,0 2.67188,-1.19624 2.67188,-2.67187v-5.34375c0,-1.47564 -1.19624,-2.67187 -2.67187,-2.67187zM109.54688,138.9375c-1.47564,0 -2.67187,1.19624 -2.67187,2.67188v5.34375c0,1.47564 1.19624,2.67188 2.67188,2.67188c1.47564,0 2.67188,-1.19624 2.67188,-2.67187v-5.34375c0,-1.47564 -1.19624,-2.67187 -2.67187,-2.67187zM122.90625,138.9375c-1.47564,0 -2.67187,1.19624 -2.67187,2.67188v5.34375c0,1.47564 1.19624,2.67188 2.67188,2.67188c1.47564,0 2.67188,-1.19624 2.67188,-2.67187v-5.34375c0,-1.47564 -1.19624,-2.67187 -2.67187,-2.67187zM136.26563,138.9375c-1.47564,0 -2.67187,1.19624 -2.67187,2.67188v5.34375c0,1.47564 1.19624,2.67188 2.67188,2.67188c1.47564,0 2.67188,-1.19624 2.67188,-2.67187v-5.34375c0,-1.47564 -1.19624,-2.67187 -2.67187,-2.67187zM149.625,138.9375c-1.47564,0 -2.67187,1.19624 -2.67187,2.67188v5.34375c0,1.47564 1.19624,2.67188 2.67188,2.67188c1.47564,0 2.67188,-1.19624 2.67188,-2.67187v-5.34375c0,-1.47564 -1.19624,-2.67187 -2.67187,-2.67187zM141.20859,59.10188h0.48094l8.41641,-1.52297c1.47564,-0.26561 2.45655,-1.67718 2.19094,-3.15281c-0.26561,-1.47564 -1.67718,-2.45655 -3.15281,-2.19094l-8.41641,1.52297c-1.47564,0.13281 -2.56421,1.43671 -2.43141,2.91234c0.13281,1.47564 1.43671,2.56421 2.91234,2.43141zM130.65469,60.94547c1.47564,-0.21397 2.49842,-1.58366 2.28445,-3.0593c-0.21397,-1.47564 -1.58366,-2.49842 -3.0593,-2.28445c-22.83143,3.39506 -46.06555,3.01595 -68.77406,-1.12219l-7.2675,-1.30922c-1.47564,-0.26561 -2.8872,0.7153 -3.15281,2.19094c-0.26561,1.47564 0.7153,2.8872 2.19094,3.15281l7.2675,1.30922c12.77469,2.31789 25.7322,3.4804 38.71547,3.47344c10.64179,-0.00194 21.26899,-0.78782 31.79531,-2.35125z" fill="#6b46c1"></path></g></g></svg>