<svg xmlns="http://www.w3.org/2000/svg" x="0px" y="0px"
width="64" height="64"
viewBox="0 0 171 171"
style=" fill:#000000;"><g fill="none" fill-rule="nonzero" stroke="none" stroke-width="1" stroke-linecap="butt" stroke-linejoin="miter" stroke-miterlimit="10" stroke-dasharray="" stroke-dashoffset="0" font-family="none" font-weight="none" font-size="none" text-anchor="none" style="mix-blend-mode: normal"><path d="M0,171.99654v-171.99654h171.99654v171.99654z" fill="none"></path><g><path d="M145.05609,30.91359l-9.35156,-0.61453c-15.25744,-1.00229 -29.83725,-6.67377 -41.76141,-16.245l-3.60703,-2.88562c-2.82117,-2.27944 -6.85102,-2.27944 -9.67219,0l-3.60703,2.88562c-11.9315,9.57632 -26.52141,15.2481 -41.78813,16.245l-9.35156,0.61453c-4.25492,0.2999 -7.4738,3.97181 -7.21406,8.22938l1.79016,32.65031c1.96176,27.88988 14.95134,53.84981 36.09703,72.14063l23.80641,18.03516c2.91724,2.51473 7.23589,2.51473 10.15313,0l23.80641,-18.03516c21.14331,-18.29266 34.13236,-44.25154 36.09703,-72.14062l1.84359,-32.67703c0.25899,-4.26231 -2.97928,-7.93075 -7.24078,-8.20266z" fill="#ffffff"></path><path d="M145.05609,30.91359l-9.35156,-0.61453c-15.25744,-1.00229 -29.83725,-6.67377 -41.76141,-16.245l-3.60703,-2.88562c-1.37008,-1.10442 -3.0763,-1.70773 -4.83609,-1.71v154.48781c1.8658,0.00175 3.66914,-0.67213 5.07656,-1.89703l23.80641,-18.03516c21.14331,-18.29266 34.13236,-44.25154 36.09703,-72.14062l1.81688,-32.75719c0.25899,-4.26231 -2.97928,-7.93075 -7.24078,-8.20266z" fill="#ffffff"></path><path d="M86.83594,56.10938l3.31312,6.03844l6.03844,3.31312l-6.03844,3.31312l-3.31312,6.03844l-3.31312,-6.03844l-6.03844,-3.31312l6.03844,-3.31312zM62.57531,77.48438l2.27109,4.16813l4.19484,2.29781l-4.19484,2.27109l-2.27109,4.19484l-2.29781,-4.19484l-4.16812,-2.27109l4.16812,-2.29781zM97.92422,88.17188l1.54969,2.83219l2.85891,1.57641l-2.85891,1.54969l-1.54969,2.85891l-1.57641,-2.85891l-2.83219,-1.54969l2.83219,-1.57641z" fill="#6b46c1"></path><path d="M145.05609,30.91359l-9.35156,-0.61453c-15.25744,-1.00229 -29.83725,-6.67377 -41.76141,-16.245l-3.60703,-2.88562c-2.82117,-2.27944 -6.85102,-2.27944 -9.67219,0l-3.60703,2.88562c-11.9315,9.57632 -26.52141,15.2481 -41.78813,16.245l-9.35156,0.61453c-4.25492,0.2999 -7.4738,3.97181 -7.21406,8.22938l1.79016,32.65031c1.96176,27.88988 14.95134,53.84981 36.09703,72.14063l23.80641,18.03516c2.91724,2.51473 7.23589,2.51473 10.15313,0l23.80641,-18.03516c21.14331,-18.29266 34.13236,-44.25154 36.09703,-72.14062l1.84359,-32.67703c0.25899,-4.26231 -2.97928,-7.93075 -7.24078,-8.20266zM136.26563,83.28234c-0.49418,8.83173 -2.95913,17.44083 -7.21406,25.19578c-0.40197,-0.24952 -0.863,-0.38782 -1.33594,-0.40078c-1.56417,0 -2.83219,1.26801 -2.83219,2.83219v2.83219c0.00415,0.3578 0.0767,0.7115 0.21375,1.04203c-3.05085,4.21233 -6.64439,8.00351 -10.6875,11.27531l-27.11953,22.12312c-1.03718,0.83557 -2.51642,0.83557 -3.55359,0l-27.27984,-22.12312c-4.04311,-3.2718 -7.63665,-7.06299 -10.6875,-11.27531c0.14037,-0.32951 0.21306,-0.68387 0.21375,-1.04203v-2.83219c0,-1.56417 -1.26801,-2.83219 -2.83219,-2.83219c-0.47294,0.01296 -0.93396,0.15126 -1.33594,0.40078c-4.25409,-7.7553 -6.71899,-16.3642 -7.21406,-25.19578l-2.21766,-40.37203l3.25969,-0.29391c16.68448,-1.51143 32.58197,-7.79066 45.79594,-18.08859l4.06125,-3.15281l4.06125,3.15281c13.21702,10.28835 29.11425,16.5582 45.79594,18.06187l3.25969,0.29391z" fill="#ffffff"></path><path d="M145.05609,30.91359l-9.35156,-0.61453c-15.25744,-1.00229 -29.83725,-6.67377 -41.76141,-16.245l-3.60703,-2.88562c-1.37008,-1.10442 -3.0763,-1.70773 -4.83609,-1.71v11.91656l4.06125,3.15281c13.21702,10.28835 29.11425,16.5582 45.79594,18.06187l3.25969,0.29391l-2.35125,40.39875c-0.49418,8.83173 -2.95913,17.44083 -7.21406,25.19578c-0.40197,-0.24952 -0.863,-0.38782 -1.33594,-0.40078c-1.56417,0 -2.83219,1.26801 -2.83219,2.83219v2.83219c0.00415,0.3578 0.0767,0.7115 0.21375,1.04203c-3.05085,4.21233 -6.64439,8.00351 -10.6875,11.27531l-27.11953,22.12312c-0.50859,0.40407 -1.14062,0.62104 -1.79016,0.61453v15.14953c1.8658,0.00175 3.66914,-0.67213 5.07656,-1.89703l23.80641,-18.03516c21.14331,-18.29266 34.13236,-44.25154 36.09703,-72.14062l1.81688,-32.75719c0.25899,-4.26231 -2.97928,-7.93075 -7.24078,-8.20266z" fill="#ffffff"></path><path d="M147.40734,28.72266l-12.77156,-1.71c-13.95657,-1.87594 -27.13804,-7.51986 -38.12766,-16.32516l-6.01172,-4.75594c-2.92837,-2.34457 -7.09116,-2.34457 -10.01953,0l-5.985,4.75594c-11.0001,8.80013 -24.19114,14.43496 -38.15437,16.29844l-12.77156,1.71c-4.16276,0.55266 -7.19337,4.22436 -6.94687,8.41641l2.67188,44.46c1.38938,23.73568 12.91192,45.72971 31.635,60.38437l26.37141,20.62688c4.83488,3.78077 11.62387,3.78077 16.45875,0l26.37141,-20.62688c18.72308,-14.65466 30.24562,-36.64869 31.635,-60.38437l2.67188,-44.46c0.22814,-4.20926 -2.84301,-7.87596 -7.02703,-8.38969zM146.41875,81.27844c-1.30374,22.2042 -12.08666,42.77739 -29.60438,56.48344l-26.37141,20.62688c-2.90299,2.27404 -6.98294,2.27404 -9.88594,0l-26.37141,-20.62688c-17.50769,-13.71116 -28.28048,-34.28361 -29.57766,-56.48344l-2.67187,-44.46c-0.08173,-1.40036 0.93338,-2.62549 2.32453,-2.80547l12.77156,-1.71c14.93087,-1.98904 29.0367,-8.01196 40.79953,-17.42062l5.985,-4.78266c0.97612,-0.78152 2.36372,-0.78152 3.33984,0l5.985,4.78266c11.75529,9.40423 25.8513,15.4269 40.77281,17.42062l12.77156,1.71c1.33859,0.17546 2.33598,1.32189 2.32453,2.67188z" fill="#6b46c1"></path><path d="M136.26563,39.81094l-3.07266,-0.26719c-14.77784,-1.34139 -28.85764,-6.90652 -40.55906,-16.03125l-3.8475,-2.96578c-1.93188,-1.50674 -4.64093,-1.50674 -6.57281,0l-3.8475,2.9925c-11.70067,9.12605 -25.78087,14.69135 -40.55906,16.03125l-3.07266,0.24047c-2.86779,0.25493 -5.01808,2.73603 -4.86281,5.61094l2.19094,38.26125c0.95448,17.31947 9.18391,33.42896 22.6575,44.35312l25.83703,20.9475c2.94322,2.38764 7.15647,2.38764 10.09969,0l25.83703,-20.9475c13.39364,-10.96389 21.54258,-27.06774 22.44375,-44.35312l2.19094,-38.26125c0.15526,-2.87491 -1.99502,-5.35601 -4.86281,-5.61094zM133.59375,83.3625c-0.47022,8.36418 -2.8074,16.51691 -6.84,23.85984c-0.35966,-0.20533 -0.76213,-0.32424 -1.17562,-0.34734c-1.47564,0 -2.67187,1.19624 -2.67187,2.67188v2.67188c-0.00082,0.3384 0.06265,0.67388 0.18703,0.98859c-2.88315,3.99012 -6.27887,7.58347 -10.09969,10.6875l-25.81031,20.92078c-0.98107,0.79588 -2.38549,0.79588 -3.36656,0l-25.83703,-20.9475c-3.82082,-3.10403 -7.21654,-6.69738 -10.09969,-10.6875c0.13027,-0.3046 0.20275,-0.63077 0.21375,-0.96187v-2.67187c0,-1.47564 -1.19624,-2.67187 -2.67187,-2.67187c-0.45228,0.01408 -0.89357,0.14279 -1.2825,0.37406c-3.99534,-7.35176 -6.29586,-15.50401 -6.73313,-23.85984l-2.19094,-38.23453l3.07266,-0.26719c15.79589,-1.42225 30.84927,-7.35827 43.36453,-17.1l3.8475,-3.01922l3.8475,2.9925c12.51978,9.73381 27.57074,15.66888 43.36453,17.1l3.07266,0.26719z" fill="#6b46c1"></path><path d="M104.47031,47.07844c-3.13605,-1.57536 -6.16215,-3.36067 -9.05766,-5.34375l-6.86672,-4.80937c-1.8377,-1.28318 -4.28089,-1.28318 -6.11859,0l-6.86672,4.80937c-6.96893,4.88535 -14.69658,8.58668 -22.87125,10.95469c-1.41661,0.41318 -2.23005,1.89651 -1.81688,3.31313c0.41318,1.41661 1.89651,2.23005 3.31312,1.81687c8.73775,-2.52887 16.99804,-6.48298 24.44766,-11.70281l6.86672,-4.91625l6.86672,4.80937c3.08868,2.15798 6.32016,4.10401 9.67219,5.82469c1.30538,0.61936 2.86664,0.08878 3.52434,-1.19771c0.6577,-1.28649 0.17354,-2.86276 -1.09293,-3.55823zM118.12359,52.52906c-1.51406,-0.44531 -3.01031,-0.93516 -4.48875,-1.46953c-1.39448,-0.50172 -2.93164,0.22201 -3.43336,1.61648c-0.50172,1.39448 0.22201,2.93164 1.61648,3.43336c1.58531,0.57 3.18844,1.09547 4.80937,1.57641c1.41661,0.41318 2.89995,-0.40026 3.31313,-1.81687c0.41318,-1.41661 -0.40026,-2.89995 -1.81688,-3.31313zM58.78125,106.875c-1.47564,0 -2.67187,1.19624 -2.67187,2.67188v5.34375c0,1.47564 1.19624,2.67188 2.67188,2.67188c1.47564,0 2.67188,-1.19624 2.67188,-2.67187v-5.34375c0,-1.47564 -1.19624,-2.67187 -2.67187,-2.67187zM72.14063,106.875c-1.47564,0 -2.67187,1.19624 -2.67187,2.67188v5.34375c0,1.47564 1.19624,2.67188 2.67188,2.67188c1.47564,0 2.67188,-1.19624 2.67188,-2.67187v-5.34375c0,-1.47564 -1.19624,-2.67187 -2.67187,-2.67187zM85.5,106.875c-1.47564,0 -2.67187,1.19624 -2.67187,2.67188v5.34375c0,1.47564 1.19624,2.67188 2.67188,2.67188c1.47564,0 2.67188,-1.19624 2.67188,-2.67187v-5.34375c0,-1.47564 -1.19624,-2.67187 -2.67187,-2.67187zM98.85938,106.875c-1.47564,0 -2.67187,1.19624 -2.67187,2.67188v5.34375c0,1.47564 1.19624,2.67188 2.67188,2.67188c1.47564,0 2.67188,-1.19624 2.67188,-2.67187v-5.34375c0,-1.47564 -1.19624,-2.67187 -2.67187,-2.67187zM112.21875,106.875c-1.47564,0 -2.67187,1.19624 -2.67187,2.67188v5.34375c0,1.47564 1.19624,2.67188 2.67188,2.67188c1.47564,0 2.67188,-1.19624 2.67188,-2.67187v-5.34375c0,-1.47564 -1.19624,-2.67187 -2.67187,-2.67187z" fill="#6b46c1"></path></g></g></svg>